# xmcd
#
# Track frame offsets:
#	150
#	12469
#	21958
#	30791
#	39441
#	50783
#	61316
#	70422
#	79346
#	89085
#	98019
#	107751
#	117003
#	129270
#	139430
#	148320
#
# Disc length: 2108 seconds
#
# Revision: 0
# Processed by: cddbd v1.5.2PL0 Copyright (c) Steve Scherf et al.
# Submitted via: FairStars CD Ripper 1.51
#
DISCID=e3083a10
DTITLE=Elvis Presley - Premium Tin Case CD1
DYEAR=2009
DGENRE=Rock and Roll
TTITLE0=Love Me Tender
TTITLE1=Don't Be Cruel
TTITLE2=All Shook Up
TTITLE3=Rip It Up
TTITLE4=Jailhouse Rock
TTITLE5=Hound Dog
TTITLE6=Blue Suede Shoes
TTITLE7=Long Tall Sally
TTITLE8=Heartbreak Hotel
TTITLE9=Tutti Frutti
TTITLE10=Lawdy, Miss Clawdy
TTITLE11=I'm Gonna Sit Right Down And Cry
TTITLE12=I Love You Because
TTITLE13=Anyway You Want Me
TTITLE14=That's All Right Mama
TTITLE15=Good Rockin' Tonight
EXTD=
EXTT0=
EXTT1=
EXTT2=
EXTT3=
EXTT4=
EXTT5=
EXTT6=
EXTT7=
EXTT8=
EXTT9=
EXTT10=
EXTT11=
EXTT12=
EXTT13=
EXTT14=
EXTT15=
PLAYORDER=
